<?xml version="1.0" standalone="no"?>
<!DOCTYPE svg PUBLIC "-//W3C//DTD SVG 20010904//EN"
 "http://www.w3.org/TR/2001/REC-SVG-20010904/DTD/svg10.dtd">
<svg version="1.0" xmlns="http://www.w3.org/2000/svg"
 width="94.000000pt" height="94.000000pt" viewBox="0 0 94.000000 94.000000"
 preserveAspectRatio="xMidYMid meet">

<g transform="translate(0.000000,94.000000) scale(0.100000,-0.100000)"
fill="#000000" stroke="none">
<path d="M451 794 c2 -68 -1 -98 -10 -103 -8 -5 -10 -18 -5 -34 6 -27 -4 -35
-22 -17 -5 5 -19 7 -31 4 -30 -8 -25 -47 10 -74 15 -12 25 -26 21 -31 -3 -6 4
-7 18 -4 l23 6 -3 -151 c-2 -82 -4 -150 -5 -150 -1 0 -24 7 -51 15 -56 17
-161 21 -136 5 8 -5 26 -10 40 -11 23 -1 22 -2 -5 -8 -23 -5 -13 -8 45 -13 41
-3 87 -12 103 -19 22 -10 32 -10 55 0 15 7 61 16 102 19 58 5 68 8 45 13 -27
6 -28 7 -5 8 14 1 32 6 40 11 24 15 -79 12 -133 -4 l-47 -14 0 138 c0 82 -4
141 -10 145 -6 4 -10 -15 -10 -49 0 -33 -4 -56 -10 -56 -7 0 -10 22 -8 58 l3
57 33 -1 c20 -1 32 3 32 11 0 7 11 20 24 28 32 22 32 64 0 70 -14 2 -27 0 -30
-4 -12 -20 -26 -8 -20 18 5 16 3 29 -5 34 -9 5 -12 35 -10 103 3 93 2 96 -19
96 -21 0 -22 -3 -19 -96z m29 -59 c0 -8 -4 -15 -10 -15 -5 0 -10 7 -10 15 0 8
5 15 10 15 6 0 10 -7 10 -15z"/>
<path d="M293 574 c-106 -52 -178 -141 -209 -258 -19 -72 -18 -96 5 -96 20 0
25 9 36 74 17 99 94 195 196 244 57 27 58 29 41 45 -17 16 -22 15 -69 -9z"/>
<path d="M577 583 c-15 -15 -12 -18 33 -39 122 -56 192 -150 215 -286 5 -30
10 -38 27 -38 19 0 20 4 14 53 -18 134 -114 260 -237 311 -32 13 -37 13 -52
-1z"/>
<path d="M174 275 c1 -8 6 -18 11 -22 4 -4 5 -3 2 4 -4 6 -2 13 5 15 8 3 6 6
-4 10 -10 4 -15 2 -14 -7z"/>
<path d="M750 280 c-11 -7 -11 -10 -2 -10 8 0 10 -5 6 -12 -4 -7 -3 -9 1 -5 7
6 17 37 12 37 -1 0 -9 -5 -17 -10z"/>
<path d="M52 135 c0 -29 3 -38 5 -22 5 34 23 36 23 2 0 -14 5 -25 10 -25 18 0
11 60 -7 67 -10 4 -21 11 -25 17 -4 6 -7 -11 -6 -39z"/>
<path d="M623 130 c0 -25 2 -35 4 -22 2 12 2 32 0 45 -2 12 -4 2 -4 -23z"/>
<path d="M713 130 c0 -25 2 -35 4 -22 2 12 2 32 0 45 -2 12 -4 2 -4 -23z"/>
<path d="M734 150 c0 -13 4 -16 10 -10 7 7 7 13 0 20 -6 6 -10 3 -10 -10z"/>
<path d="M877 151 c-4 -17 -3 -21 5 -13 5 5 8 16 6 23 -3 8 -7 3 -11 -10z"/>
<path d="M124 148 c-5 -8 -2 -9 9 -5 24 9 21 -6 -3 -21 -25 -16 -17 -32 16
-32 17 0 24 6 24 19 0 44 -28 68 -46 39z m26 -38 c0 -5 -4 -10 -10 -10 -5 0
-10 5 -10 10 0 6 5 10 10 10 6 0 10 -4 10 -10z"/>
<path d="M180 149 c0 -26 12 -59 21 -59 14 0 10 33 -6 54 -11 14 -15 16 -15 5z"/>
<path d="M210 151 c0 -5 5 -22 11 -38 8 -22 12 -24 19 -13 6 8 9 24 9 35 l0
20 -9 -20 c-7 -16 -9 -17 -9 -3 -1 18 -21 36 -21 19z"/>
<path d="M274 148 c-5 -8 -2 -9 9 -5 24 9 21 -6 -3 -21 -25 -16 -17 -32 16
-32 17 0 24 6 24 19 0 44 -28 68 -46 39z m26 -38 c0 -5 -4 -10 -10 -10 -5 0
-10 5 -10 10 0 6 5 10 10 10 6 0 10 -4 10 -10z"/>
<path d="M335 152 c-9 -10 -5 -62 5 -62 6 0 10 11 10 25 0 14 5 25 10 25 6 0
10 4 10 8 0 9 -27 12 -35 4z"/>
<path d="M384 113 c1 -28 4 -49 8 -47 11 7 30 73 25 87 -3 7 -6 5 -6 -5 -1
-10 -5 -18 -10 -18 -5 0 -11 8 -14 18 -2 9 -3 -6 -3 -35z"/>
<path d="M444 149 c-4 -7 -3 -9 4 -5 6 3 13 2 16 -3 3 -5 -3 -11 -14 -14 -30
-8 -25 -37 6 -37 22 0 25 4 22 32 -3 33 -21 47 -34 27z m26 -33 c0 -3 -4 -8
-10 -11 -5 -3 -10 -1 -10 4 0 6 5 11 10 11 6 0 10 -2 10 -4z"/>
<path d="M681 144 c0 -11 3 -14 6 -6 3 7 2 16 -1 19 -3 4 -6 -2 -5 -13z"/>
<path d="M767 153 c-9 -9 -9 -63 1 -63 4 0 7 16 7 35 0 19 0 35 -1 35 0 0 -4
-3 -7 -7z"/>
<path d="M845 150 c-3 -5 -1 -19 5 -30 15 -28 21 -25 10 4 -5 13 -6 27 -3 30
4 3 4 6 0 6 -3 0 -9 -4 -12 -10z"/>
<path d="M587 116 c-4 -10 -5 -21 -2 -24 9 -9 17 6 13 25 -3 17 -4 17 -11 -1z"/>
<path d="M652 110 c0 -14 2 -19 5 -12 2 6 2 18 0 25 -3 6 -5 1 -5 -13z"/>
<path d="M238 43 c127 -2 337 -2 465 0 127 1 23 2 -233 2 -256 0 -360 -1 -232
-2z"/>
</g>
</svg>
